<?xml version="1.0" encoding="utf-8"?>
<!-- Generator: Adobe Illustrator 21.0.0, SVG Export Plug-In . SVG Version: 6.00 Build 0)  -->
<svg version="1.1" id="图层_1" xmlns="http://www.w3.org/2000/svg" xmlns:xlink="http://www.w3.org/1999/xlink" x="0px" y="0px"
	 viewBox="0 0 800 800" enable-background="new 0 0 800 800" xml:space="preserve">
<path fill="#8d0b93" d="M620.73,397.174l-4.792,10.718l-9.235-90.181c-0.788-1.66-3.169-1.606-3.881,0.088l-10.96,136.272
	l-10.643-75.474c-0.311-2.208-3.307-2.654-4.248-0.633l-10.301,22.123h-39.896c0.001-0.116,0.007-0.231,0.007-0.347
	c0-15.209-3.961-29.522-10.949-41.891c19.357,3.924,39.238-2.317,50.785-17.9c16.554-22.309,9.865-55.344-14.948-73.729
	c-24.813-18.386-58.333-15.209-74.888,7.1c-9.903,13.378-11.472,30.568-5.829,46.151c-9.268-3.438-19.32-5.344-29.783-5.344
	c-10.463,0-20.516,1.868-29.783,5.344c5.643-15.583,4.073-32.81-5.83-46.151c-16.555-22.309-50.075-25.486-74.888-7.1
	c-24.813,18.386-31.502,51.42-14.948,73.729c11.547,15.583,31.427,21.824,50.785,17.9c-6.951,12.369-10.949,26.682-10.949,41.891
	c0,0.111,0.007,0.221,0.007,0.332l-50.277-1.733l-10.173-28.672c-0.8-2.255-4.066-2.009-4.519,0.34l-7.483,38.774l-14.137-93.966
	c-0.363-2.412-3.847-2.391-4.181,0.026l-11.515,83.484l-37.277,0.829l-9.759-44.895c-0.416-1.914-3.141-1.927-3.575-0.017
	l-6.393,28.125L185.875,277.43c-0.945-1.388-2.996-1.375-3.923,0.025l-12.886,172.291l-9.771-73.099
	c-0.26-1.943-2.876-2.38-3.753-0.626l-11.592,23.185H97.184v5.596h50.225l7.895-15.789l12.508,93.599
	c0.365,2.734,4.361,2.609,4.555-0.142l11.922-169.084l8.541,92.523c0.2,2.172,3.295,2.376,3.778,0.249l7.764-34.161l7.142,32.856
	l46.657-1.037l8.866-64.277l13.07,86.874c0.448,2.979,4.711,3.067,5.281,0.109l8.44-43.74l7.459,21.02l54.498,1.879l0,0.002h0.06
	l1.437,0.05l0.002-0.05h5.362c-0.551-3.538-0.848-7.155-0.848-10.836c0-16.816,5.942-32.287,15.957-44.768
	c-16.442,7.063-34.94,4.895-46.973-7.137c-16.368-16.405-14.424-44.955,4.372-63.752c18.797-18.797,47.347-20.702,63.752-4.297
	c14.2,14.2,14.686,37.481,2.392,55.643c11.734-6.39,25.336-10.09,39.873-10.09c14.537,0,28.139,3.662,39.873,10.052
	c-12.294-18.199-11.809-41.442,2.392-55.643c16.405-16.405,44.955-14.499,63.752,4.297c18.797,18.834,20.702,47.384,4.297,63.789
	c-12.033,12.033-30.531,14.2-46.973,7.137c10.015,12.444,15.957,27.952,15.957,44.768c0,3.682-0.296,7.298-0.847,10.836h6.867v0.002
	h43.75l7.026-15.086l13.883,98.458c0.31,2.201,3.523,2.097,3.691-0.119l10.295-136.021l6.46,68.47
	c0.209,2.219,3.228,2.716,4.138,0.682l8.63-19.297h39.22v-5.596H620.73z"/>
</svg>
